<svg width="45" height="36" viewBox="0 0 45 36" fill="none" xmlns="http://www.w3.org/2000/svg">
<g opacity="0.4">
<path d="M5.89214 7.21572C4.09022 8.88343 3.43439 12.6623 6.68272 14.8713L19.6417 23.9611L13.3583 9.24355C12.0416 5.77056 8.43959 5.01321 5.89214 7.21572Z" fill="black"/>
<path d="M17.0472 0.0609624C14.9407 0.104843 11.7776 2.66944 13.1853 6.58564L19.684 22.2553L21.9677 5.77382C22.4961 1.67855 19.4647 -0.211924 17.0472 0.0609624Z" fill="black"/>
<path d="M22.982 5.14531H24.2108C24.2108 5.14531 24.867 5.14531 24.9563 5.46182C24.4728 5.86555 23.1565 5.91615 23.3313 8.07273L25.397 22.2532L31.8514 6.54238C33.1716 3.03445 30.4005 0.104799 27.9424 0.0152624C27.8276 0.00684156 27.7123 1.97996e-09 27.593 1.97996e-09C25.3867 -6.57856e-05 22.8584 1.63929 22.982 5.14531Z" fill="black"/>
<path d="M31.5913 9.37892L25.4866 23.9199L38.4418 14.7821C41.4281 12.6165 40.9465 9.15426 39.2748 7.44286C38.574 6.63736 37.2873 6.01514 35.9242 6.01514C34.3138 6.01481 32.5904 6.88807 31.5913 9.37892Z" fill="black"/>
<path d="M36.9913 16.8491L24.8248 25.5375H39.8052C42.8787 25.5375 44.8538 22.2977 43.9757 19.3246C43.3877 17.4559 41.6478 15.9889 39.6284 15.9868C38.7784 15.9871 37.8769 16.2489 36.9913 16.8491Z" fill="black"/>
<path d="M5.54292 25.5386H20.3024L8.13277 16.8503C5.3213 15.0035 2.16004 16.0841 1.01878 19.1488C0.0513768 22.6571 2.46679 25.5386 5.54292 25.5386Z" fill="black"/>
<path d="M0 31.8266C0 33.3063 1.18316 35.9997 5.70086 35.9997C9.86608 35.9997 11.1816 34.0457 11.1816 33.1498H7.95695C7.95695 33.1498 7.8038 34.3335 5.98477 34.3335C4.16457 34.3335 3.67231 32.7802 3.67231 31.882C3.67231 30.9872 4.16457 29.5178 5.98477 29.5178C7.8038 29.5178 7.95695 30.5483 7.95695 30.5483H11.1816C11.1816 29.6513 10.2164 27.7249 5.70086 27.7249C1.18316 27.7249 0 30.5933 0 31.8266Z" fill="black"/>
<path d="M33.8182 31.8269C33.8182 33.3066 35.0026 36 39.5191 36C43.6839 36 45 34.046 45 33.15H41.7776C41.7776 33.15 41.6237 34.3337 39.8042 34.3337C37.9838 34.3337 37.4911 32.7804 37.4911 31.8822C37.4911 30.9874 37.9838 29.518 39.8042 29.518C41.6237 29.518 41.7776 30.5486 41.7776 30.5486H45C45 29.6516 44.0358 27.7251 39.5191 27.7251C35.0027 27.7251 33.8182 30.5936 33.8182 31.8269Z" fill="black"/>
<path d="M19.9946 27.8643V32.8734L16.2418 27.8643H12.0202V35.7983H14.9144V30.7316L18.6015 35.7983H22.8889V27.8643H19.9946Z" fill="black"/>
<path d="M29.2687 33.9028V33.9133H26.8572V32.4565H29.2687V32.4612C29.7836 32.4612 30.1997 32.7848 30.1997 33.1832C30.1997 33.5806 29.7836 33.9028 29.2687 33.9028ZM26.8794 29.4074H29.2029V29.4107C29.5966 29.4107 29.9158 29.6755 29.9158 30.0014C29.9158 30.3286 29.5966 30.5911 29.2029 30.5911V30.5946H26.8794V29.4074ZM31.6371 31.5803C32.164 31.5803 33.2656 30.955 33.2656 29.7435C33.2656 28.0185 30.1238 27.8643 29.6418 27.8643H23.853V35.7983H29.6418C32.426 35.7983 33.5444 34.8991 33.5444 33.3974C33.5444 31.8957 31.6371 31.5803 31.6371 31.5803Z" fill="black"/>
</g>
</svg>
