<svg width="247" height="20" viewBox="0 0 247 20" fill="none" xmlns="http://www.w3.org/2000/svg">
<path opacity="0.4" fill-rule="evenodd" clip-rule="evenodd" d="M5.92917 17.052C5.92917 18.4465 6.32723 18.7652 8.87394 18.7652V19.6416H0V18.7652C1.75081 18.7652 2.34802 18.6057 2.34802 17.0919V2.86865C2.34802 1.35459 1.75081 1.19513 0 1.19513V0.318687H14.8829L14.9626 5.61753H14.2462C13.8482 1.63359 12.8534 1.27522 9.15261 1.27522H5.88953V9.16371H8.51575C11.0228 9.16371 11.1821 8.76518 11.381 6.77321H12.0974V12.5502H11.381C11.1821 10.5582 11.0228 10.1994 8.51575 10.1994H5.88953V17.0522H5.92941L5.92917 17.052ZM16.793 19.6416V18.7652C18.544 18.7652 19.141 18.6057 19.141 17.0919V2.86865C19.141 1.35459 18.544 1.19513 16.793 1.19513V0.318687H25.0701V1.19537C23.3191 1.19537 22.7221 1.35483 22.7221 2.86889V17.0921C22.7221 18.6059 23.3191 18.7654 25.0701 18.7654V19.6419H16.7927L16.793 19.6416ZM43.8527 19.9603L30.6411 3.58564V17.0123C30.6411 18.5663 31.7155 18.8051 33.5463 18.8051V19.6818H26.5425V18.8051C28.3729 18.8051 29.3679 18.5663 29.3679 17.0123V2.11151C28.5321 1.23506 27.9352 1.19513 26.5425 1.19513V0.318687H32.7504L42.8579 13.3468V2.94826C42.8579 1.39452 41.7836 1.15544 39.953 1.15544V0.318687H46.9964V1.19537C45.166 1.19537 44.171 1.43444 44.171 2.98842V19.9608H43.8527V19.9603ZM53.284 19.6416H46.3199V18.7652C48.1505 18.7652 48.9862 18.5261 49.583 16.9324L55.8706 0.119537H57.6214L64.3863 17.052C64.9833 18.566 65.2617 18.7253 66.6546 18.7253V19.6017H58.5765V18.7253C61.0437 18.7253 61.2825 18.5261 60.6853 17.052L58.6959 11.9126H52.6471L50.8567 16.8925C50.2996 18.4066 51.175 18.7253 53.3239 18.7253V19.6416H53.284ZM53.0053 10.9164H58.258L55.5124 3.98417L53.0053 10.9164ZM84.8005 19.9603L71.6288 3.58564V17.0123C71.6288 18.5663 72.7031 18.8051 74.5337 18.8051V19.6818H67.689V18.8051C69.3606 18.8051 70.3554 18.5663 70.3554 17.0123V2.15143C69.4004 1.27498 68.6841 1.19513 67.0925 1.19513V0.318687H73.698L83.8055 13.3468V2.94826C83.8055 1.39452 82.7312 1.15544 80.9008 1.15544V0.318687H87.9046V1.19537C86.074 1.19537 85.0792 1.43444 85.0792 2.98842V19.9608H84.8005V19.9603ZM104.339 0.278998H104.817L105.095 6.05575L104.379 6.09568C103.902 2.78904 102.151 1.03591 98.9274 1.03591C95.346 1.03591 92.64 4.10371 92.64 8.80487C92.64 14.8209 96.4203 18.2471 100.4 18.2471C102.111 18.2471 103.663 17.7692 105.175 16.1358L105.732 16.6934C104.498 18.4465 102.071 19.9206 98.8077 19.9206C93.9531 19.9206 89.0188 16.2551 89.0188 10.1195C89.0185 4.18332 93.5152 0 98.9672 0C101.554 0 102.907 1.11552 103.623 1.11552C103.941 1.11552 104.18 0.836758 104.339 0.278998ZM107.324 19.6416V18.7652C109.075 18.7652 109.672 18.6057 109.672 17.0919V2.86865C109.672 1.35459 109.075 1.19513 107.324 1.19513V0.318687H115.601V1.19537C113.85 1.19537 113.253 1.35483 113.253 2.86889V17.0921C113.253 18.6059 113.85 18.7654 115.601 18.7654V19.6419H107.324V19.6416ZM123.401 19.6416H116.914V18.7652C118.347 18.7652 119.103 18.5261 119.7 16.9324L125.987 0.119537H127.738L134.503 17.052C135.1 18.566 135.379 18.7253 136.771 18.7253V19.6017H128.693V18.7253C131.161 18.7253 131.399 18.5261 130.802 17.052L128.813 11.9126H122.764L120.973 16.8925C120.416 18.4066 121.292 18.7253 123.441 18.7253V19.6416H123.401H123.401ZM123.122 10.9164H128.375L125.669 3.98417L123.122 10.9164ZM138.124 19.6416V18.7652C139.875 18.7652 140.472 18.6057 140.472 17.0919V2.86865C140.472 1.35459 139.875 1.19513 138.124 1.19513V0.318687H146.361V1.19537C144.611 1.19537 144.053 1.35483 144.053 2.86889V17.2117C144.053 18.4864 144.69 18.6459 145.725 18.6459H146.72C150.46 18.6459 151.654 18.0881 152.689 13.8252L153.405 13.9048L152.808 19.6022H138.124V19.6421V19.6416ZM178.236 0.318687L178.316 5.93622H177.6C177.202 1.79282 176.207 1.27522 172.506 1.27522H171.312V17.0522C171.312 18.5663 171.869 18.7654 174.257 18.7654V19.6419H164.786V18.7654C167.174 18.7654 167.77 18.5263 167.77 17.0522V1.27498H166.577C162.876 1.27498 161.881 1.79282 161.483 5.93622H160.767L160.846 0.318687H178.236ZM180.107 19.6419V18.7652C181.858 18.7652 182.455 18.6057 182.455 17.0919V2.86865C182.455 1.35459 181.858 1.19513 180.107 1.19513V0.318687H188.384V1.19537C186.633 1.19537 186.036 1.35483 186.036 2.86889V17.0921C186.036 18.6059 186.633 18.7654 188.384 18.7654V19.6419H180.107ZM213.295 0.318452V1.19537C211.544 1.19537 210.788 1.27522 210.947 2.82896L212.459 17.1717C212.618 18.6459 213.176 18.8051 214.926 18.8051V19.6818H206.689V18.8051C208.4 18.8051 208.997 18.6459 208.878 17.1717L207.326 2.11127L201.237 20H200.998L195.029 2.07182L193.596 17.1316C193.437 18.6456 194.472 18.8049 196.223 18.8049V19.6815H189.776V18.8049C191.527 18.8049 192.124 18.5261 192.243 17.1316L193.756 2.7888C193.915 1.27498 193.159 1.15544 191.408 1.15544V0.318687H198.173L202.232 13.506L206.609 0.318687H213.294L213.295 0.318452ZM228.695 12.5497H227.979C227.78 10.5578 227.621 10.1989 225.114 10.1989H222.169V17.2112C222.169 18.4859 222.805 18.6454 223.84 18.6454H225.432C229.172 18.6454 230.366 18.0876 231.401 13.8247L232.117 13.9043L231.441 19.6017H216.239V18.725C217.99 18.725 218.587 18.5658 218.587 17.0517V2.86865C218.587 1.35459 217.99 1.19513 216.239 1.19513V0.318687H230.844L230.923 5.13938H230.207C229.769 1.71297 228.894 1.31467 225.074 1.31467H222.209V9.16324H225.153C227.66 9.16324 227.819 8.76494 228.018 6.77297H228.735V12.55H228.695L228.695 12.5497ZM244.055 15.6572C244.055 13.9043 242.941 13.0279 241.031 11.952L237.967 10.3584C235.659 9.12332 234.306 7.76872 234.306 5.33853C234.306 2.31089 236.892 0 240.275 0C242.583 0 243.777 1.11552 244.453 1.11552C244.891 1.11552 245.09 0.836758 245.289 0.278998H245.846L246.125 5.69738L245.408 5.7373C245.01 3.10749 243.14 1.0756 240.514 1.0756C238.524 1.0756 237.211 2.27097 237.211 3.94425C237.211 5.77699 238.603 6.5339 240.156 7.37066L242.782 8.76494C245.249 10.1195 247 11.4741 247 14.0638C247 17.4902 244.055 19.9206 240.394 19.9206C237.808 19.9206 236.534 18.6853 235.858 18.6853C235.42 18.6853 235.181 19.0839 234.982 19.6815H234.425L234.027 13.9442L234.744 13.8646C235.301 17.4503 237.768 18.9244 240.235 18.9244C242.304 18.8845 244.055 17.9683 244.055 15.6577L244.055 15.6572Z" fill="black"/>
</svg>
