<svg width="98" height="26" viewBox="0 0 98 26" fill="none" xmlns="http://www.w3.org/2000/svg">
<g opacity="0.4" clip-path="url(#clip0_1_525)">
<path d="M9.43444 2.4226H11.5812C12.8886 2.2275 14.2238 2.39903 15.4417 2.91856C16.9697 3.84975 18.078 5.34886 18.5301 7.09611C18.8503 8.01174 18.8503 8.01174 19.6224 7.68745H20.225V0.438738H0.0186069V1.7168H0.8472C1.20727 1.71428 1.56333 1.7935 1.88921 1.94864C2.21509 2.10379 2.50251 2.33092 2.73037 2.61335C3.50247 3.87234 3.63429 5.28393 3.63429 12.628C3.63429 20.4299 3.4648 22.3375 2.73037 23.3103C2.54905 23.5604 2.31431 23.7658 2.04366 23.9112C1.77301 24.0565 1.47345 24.138 1.16734 24.1497C0.0186069 24.3595 0.0186069 24.3404 0.0186069 24.8555C-0.0449189 25.0277 -0.0449189 25.2174 0.0186069 25.3896H12.7676C12.852 25.2211 12.896 25.0348 12.896 24.8459C12.896 24.657 12.852 24.4708 12.7676 24.3023C12.4589 24.2152 12.1441 24.1515 11.8261 24.1115C11.482 24.0701 11.1418 23.9999 10.8092 23.9017C10.3327 23.5494 9.95533 23.0772 9.71424 22.5319C9.47314 21.9866 9.3767 21.387 9.43444 20.7924C9.24612 19.5334 9.15196 17.2252 9.15196 15.3177V13.8107H9.90523C10.8437 13.7816 11.7817 13.8843 12.6923 14.1159C13.1286 14.389 13.5 14.7563 13.7799 15.1916C14.0599 15.6268 14.2415 16.1193 14.3118 16.6339L14.4813 17.2252H15.6301V8.77476H14.5755L14.406 9.59501C14.3347 10.1212 14.1425 10.6232 13.8449 11.0605C13.5472 11.4978 13.1525 11.8583 12.6923 12.113C12.2467 12.2473 11.7772 12.2799 11.3176 12.2084H9.15196V10.1482C9.15196 8.01174 9.26495 3.5099 9.34028 2.80411L9.43444 2.4226ZM97.5666 17.5495C96.6765 16.0983 95.2881 15.0316 93.6685 14.5547C92.4268 14.1615 91.2791 13.512 90.2976 12.6471C90.0768 12.4307 89.9115 12.1629 89.8163 11.867C89.7211 11.571 89.6989 11.256 89.7515 10.9494C89.7529 10.3479 89.99 9.7716 90.4106 9.34703C90.6956 9.0446 91.0565 8.82629 91.4545 8.71542C91.8525 8.60455 92.2728 8.60528 92.6704 8.71754C93.4936 8.9552 94.2381 9.414 94.8249 10.0453C95.4117 10.6767 95.819 11.457 96.0036 12.3037C96.3049 13.1621 96.3426 13.1621 96.8887 12.9332L97.2277 12.7997V8.04989L96.9828 7.93544C95.1289 7.27586 93.1623 7.00333 91.2015 7.13426C89.513 7.1776 87.9013 7.85786 86.6819 9.04182C86.1289 9.56619 85.6958 10.2067 85.4128 10.9184C85.1298 11.6301 85.0038 12.3959 85.0436 13.1621C85.0541 14.3336 85.5132 15.4552 86.3241 16.2905C87.2202 17.1833 88.3198 17.8385 89.5255 18.1981C92.4444 19.3617 93.2918 20.1056 93.2918 21.46C93.3044 22.0312 93.1248 22.5896 92.7826 23.0437C92.4403 23.4978 91.9559 23.8206 91.4087 23.9589C90.7511 24.1052 90.0701 24.1052 89.4125 23.9589C88.5516 23.6204 87.7829 23.0786 87.1704 22.3786C86.5579 21.6785 86.1193 20.8404 85.891 19.934L85.6462 19.3236H85.3072C85.1452 19.3357 84.9862 19.3744 84.8364 19.438H84.6481V24.8555H84.9682C86.2405 25.2842 87.5532 25.5782 88.8852 25.7329H90.7684C91.5851 25.7937 92.4061 25.7163 93.1977 25.504C94.2027 25.3162 95.1417 24.8652 95.9213 24.1959C96.701 23.5266 97.2942 22.6623 97.642 21.6889C97.8667 21.1452 97.9819 20.5615 97.9809 19.9721C98.0551 19.1417 97.9122 18.3062 97.5666 17.5495ZM79.8272 7.68745C78.6987 7.20753 77.4828 6.97473 76.2593 7.00431C75.0358 7.0339 73.8322 7.32521 72.7277 7.85913C71.6894 8.37357 70.7692 9.10282 70.0264 9.99981C69.2836 10.8968 68.7347 11.9416 68.4152 13.0668C68.0079 14.2942 67.8353 15.589 67.9068 16.8819C67.8933 17.5853 67.9501 18.2883 68.0762 18.9802C68.3803 20.6814 69.1911 22.2475 70.3996 23.4683C71.6082 24.689 73.1565 25.5059 74.8368 25.8092C75.931 25.9489 77.0382 25.9489 78.1323 25.8092C79.2678 25.6065 80.3544 25.1857 81.3337 24.5693C82.1438 24.1093 82.8294 23.4541 83.3299 22.6618C83.2978 22.5374 83.2412 22.421 83.1635 22.3194C83.0858 22.2177 82.9887 22.1331 82.8779 22.0704C82.663 22.1493 82.4601 22.2584 82.2753 22.3947C81.3387 23.02 80.2326 23.3335 79.1116 23.2913C78.3675 23.3422 77.6216 23.2249 76.9279 22.9477C76.2341 22.6706 75.6099 22.2406 75.1004 21.6889C74.7064 21.3181 74.3811 20.8788 74.14 20.3918C73.5549 19.2059 73.2395 17.9022 73.2173 16.5767V15.8327H83.65V15.4512C83.6731 15.0701 83.6731 14.6878 83.65 14.3067C83.6463 12.9598 83.2906 11.6378 82.6192 10.4752C81.9477 9.31265 80.9845 8.35081 79.8272 7.68745ZM74.5732 14.2876H73.2549V13.1621C73.6881 10.2817 74.7615 8.56493 76.0797 8.56493C77.3979 8.56493 77.9629 10.2627 78.2077 13.372V14.2494H77.0778L74.5732 14.2876ZM47.4932 7.05796C46.8425 7.0324 46.1957 7.17 45.6101 7.45855C44.3373 8.08466 43.3093 9.126 42.6912 10.4153L42.4464 10.8731V7.05796H42.3522C42.1262 7.05796 35.1585 8.46955 34.9325 8.56493C34.7065 8.66031 34.7819 8.67938 34.7819 9.02274C34.7819 9.3661 34.7819 9.42333 34.9325 9.44241L35.667 9.59501C35.8726 9.60012 36.0745 9.65259 36.2572 9.74843C36.4399 9.84428 36.5987 9.98098 36.7215 10.1482C37.1923 10.7777 37.2865 11.8841 37.2865 16.5957C37.3795 18.7169 37.2913 20.8422 37.0228 22.9479C36.9596 23.2654 36.8007 23.5552 36.5679 23.7773C36.3352 23.9994 36.0401 24.1429 35.7234 24.1878L35.0832 24.3213H34.8384V24.8555C34.77 25.0334 34.77 25.2308 34.8384 25.4087H45.3653V24.8555C45.4018 24.6729 45.4018 24.4848 45.3653 24.3023C44.7314 24.2773 44.1012 24.1943 43.4821 24.0543C43.145 23.8757 42.8692 23.5978 42.691 23.2573C42.5128 22.9168 42.4407 22.5296 42.484 22.1467C42.3334 21.0403 42.258 17.7975 42.2957 15.3177C42.3334 12.8379 42.2957 12.6853 42.5028 12.5136C43.133 12.0242 43.9128 11.7744 44.7061 11.8078C45.454 11.8243 46.1882 12.0135 46.853 12.361C47.0834 12.4906 47.3306 12.5869 47.5874 12.6471C47.5874 12.6471 49.4706 8.03082 49.4706 7.82098C49.2296 7.53732 48.9226 7.319 48.5773 7.18577C48.2321 7.05254 47.8595 7.00861 47.4932 7.05796ZM34.8007 15.0697C34.735 13.7066 34.3486 12.3791 33.6738 11.1978C32.999 10.0166 32.0553 9.01578 30.9214 8.2788C29.5738 7.54238 28.0745 7.13633 26.5439 7.09327C25.0133 7.0502 23.494 7.37131 22.1081 8.03081C20.1487 9.07745 18.6692 10.8566 17.984 12.9905C17.2763 15.3795 17.2763 17.9264 17.984 20.3155C18.355 21.6211 19.0485 22.8095 19.999 23.7682C21.1827 24.9382 22.7091 25.6878 24.3491 25.9046C25.4019 25.9938 26.4601 25.9938 27.5128 25.9046C27.9002 25.8449 28.2838 25.7621 28.6616 25.6566C30.1944 25.2223 31.5734 24.3548 32.6373 23.1555C33.7011 21.9563 34.4058 20.4749 34.6689 18.8848C34.8569 17.6224 34.9011 16.3423 34.8007 15.0697ZM26.9667 24.6075C25.0836 25.1797 23.6712 23.3294 23.2004 19.438C23.0275 17.4007 23.0275 15.3521 23.2004 13.3147C23.577 10.1864 24.5374 8.60308 26.0251 8.60308C26.3253 8.58424 26.6255 8.63848 26.9007 8.76128C27.1759 8.88407 27.4181 9.07184 27.607 9.30888C28.8687 10.5869 29.4902 13.124 29.4902 16.9391C29.6468 19.0982 29.3118 21.265 28.5109 23.2722C28.1573 23.8576 27.6101 24.2969 26.9667 24.5121V24.6075ZM60.8637 7.43947C60.3323 7.37021 59.7944 7.37021 59.263 7.43947C58.243 7.43859 57.2347 7.65978 56.3065 8.08804L55.7227 8.33602V4.19662C55.8247 2.79966 55.8247 1.39697 55.7227 0C55.4967 0 48.303 1.39252 48.19 1.44974C48.1345 1.59058 48.1345 1.74765 48.19 1.88848C48.19 2.28907 48.19 2.26999 49.0374 2.46075C49.2754 2.5148 49.5039 2.60483 49.7154 2.72781C50.083 3.07796 50.3276 3.54012 50.4121 4.04402C50.6266 5.49571 50.696 6.96561 50.6193 8.4314V25.1797L51.1277 25.2942C51.881 25.4659 54.009 25.8283 54.7058 25.9046C56.0971 26.0167 57.495 26.0167 58.8864 25.9046C60.4307 25.7448 61.9027 25.1612 63.1438 24.2167C64.3849 23.2721 65.348 22.0024 65.9294 20.5444C66.276 19.6086 66.5161 18.6358 66.645 17.6449C66.7571 16.3027 66.7129 14.9517 66.5132 13.62C66.3112 12.1271 65.6607 10.7334 64.6501 9.62777C63.6395 8.52215 62.3176 7.75818 60.8637 7.43947ZM55.9298 24.2832C55.9298 24.0352 55.7415 15.6801 55.7792 12.3419V9.72854L56.3253 9.59501C56.6938 9.54153 57.0679 9.54153 57.4364 9.59501C57.8439 9.55304 58.2538 9.6468 58.6039 9.86207C59.3072 10.3537 59.8912 11.0006 60.312 11.7539C60.7327 12.5072 60.9794 13.3475 61.0332 14.2113C61.1704 15.6003 61.1704 16.9998 61.0332 18.3888C60.9205 20.4077 60.1525 22.3323 58.8487 23.8635C58.4787 24.2196 58.0139 24.4583 57.5117 24.5503C57.1316 24.6172 56.743 24.6172 56.3629 24.5503C56.0051 24.5503 56.0051 24.4358 56.0051 24.2832H55.9298Z" fill="black"/>
</g>
<defs>
<clipPath id="clip0_1_525">
<rect width="98" height="26" fill="white"/>
</clipPath>
</defs>
</svg>
