<svg width="172" height="22" viewBox="0 0 172 22" fill="none" xmlns="http://www.w3.org/2000/svg">
<path opacity="0.4" d="M20.5479 0V4.36022H19.6803C19.2459 4.215 19.1013 4.50543 19.1013 4.7964C17.7988 9.30238 16.3517 13.6631 14.904 18.1625C14.6148 19.1801 14.325 20.1977 13.8907 21.2153C13.8907 21.3605 13.6015 21.5057 13.4563 21.5057H6.79197L6.64736 21.0695L1.58078 4.7909C1.43617 4.35471 1.29157 4.35471 0.85776 4.35471H0V0H9.26337V4.36022H7.38188L10.4218 16.4238H10.5664L13.8956 4.36022H12.0141V0H20.5479ZM35.1725 5.81399H41.3965L41.5411 7.99437C41.9755 7.55818 42.2641 7.12255 42.5544 6.83157C44.2907 5.37835 46.3174 5.08793 48.4886 5.81399C50.0809 6.39539 50.8045 7.7034 50.8045 9.44759V17.1504H52.107V21.5107H45.1534V11.7732C45.1534 10.9014 44.8642 10.4652 44.2853 10.32C43.5623 10.1748 42.9827 10.32 42.5489 10.9014L42.2597 11.3375L42.1151 11.7737V17.1515H43.1284V21.5118H35.1665V17.1499H36.3244V10.1742H35.1665L35.1725 5.81399ZM73.0936 10.029H72.0803V5.66877H78.8832V17.1504H80.1857V21.5107H73.8172V19.9117C73.528 20.2021 73.3828 20.4931 73.0942 20.6377C71.5019 22.091 68.7522 22.3814 66.8702 21.5096C65.4231 20.7835 64.699 19.6201 64.699 18.0212L64.5544 10.754V10.1726H63.2518V5.81399H70.1994V15.1098C70.1994 15.546 70.1994 15.9816 70.344 16.2726C70.4886 16.854 71.067 17.1444 71.6465 17.1444C72.226 17.1444 72.6598 16.854 72.949 16.2726C73.0936 16.1274 73.0936 15.8364 73.0936 15.5465V10.029ZM34.1532 14.6862H24.4566C24.4566 15.5581 24.4566 16.4299 24.8909 17.157C25.1801 17.7384 25.9042 18.0289 26.4832 18.0289C27.0622 18.0289 27.7857 17.7384 28.0755 17.0113C28.2201 16.7208 28.2201 16.4299 28.3647 15.9937H33.7199C33.5753 17.7373 32.8518 19.1911 31.4041 20.2087C30.4193 20.9148 29.2754 21.3642 28.0749 21.5167C26.4826 21.8071 24.7458 21.6619 23.154 21.2263C20.9828 20.5002 19.5357 19.0459 18.9567 17.0113C18.2337 14.6857 18.2337 12.3601 18.9567 10.0345C19.8249 7.27326 21.8515 5.67428 24.7463 5.23809C26.0488 5.09288 27.3514 5.09288 28.6544 5.52851C31.5492 6.40034 33.1415 8.28974 33.721 11.3425C34.0102 12.5053 34.0102 13.5229 34.1554 14.6857L34.1532 14.6862ZM24.6006 11.6335H28.3636C28.3636 10.7617 28.3636 10.0345 27.4954 9.5983C26.7724 9.16212 26.0483 9.16212 25.4688 9.5983C24.6006 10.0345 24.6006 10.7611 24.6006 11.6335ZM109.555 14.6862H99.8638C99.8638 15.5581 99.8638 16.4299 100.298 17.157C100.733 17.8842 101.312 18.0289 102.035 18.0289C102.758 18.0289 103.337 17.5927 103.627 17.0113L103.916 16.1395H109.271C108.982 19.3369 106.666 21.5173 103.482 21.8082C101.889 21.9534 100.442 21.9534 98.9946 21.372C96.8233 20.646 95.3762 19.1917 94.6526 17.0118C93.9296 14.6862 93.9296 12.5058 94.6526 10.1803C95.5208 7.27326 97.6926 5.82004 100.587 5.38385C101.889 5.23864 103.336 5.23864 104.64 5.67428C107.39 6.5461 108.837 8.43551 109.416 11.0521C109.561 12.3601 109.561 13.5229 109.561 14.6857L109.555 14.6862ZM100.147 11.6335H103.91C103.91 10.0345 103.187 9.16267 101.883 9.30788C100.725 9.45309 100.002 10.3255 100.147 11.6335ZM52.824 5.66823H54.5603V2.61547C54.5603 2.03407 54.7049 1.88941 55.2833 1.74365L59.7704 0.726061V5.66768H62.2308V10.0279H59.7704V16.1334C59.915 17.151 60.6386 17.5866 61.5067 17.4414C61.6513 17.4414 61.7959 17.4414 62.0857 17.2962V20.0574C62.0857 21.3654 62.0857 21.3654 60.7832 21.5107C59.4807 21.6559 58.1781 21.8011 56.7299 21.5107C54.8484 21.0745 53.9803 19.9117 53.9803 18.0223V10.0301H52.6777C52.8223 8.72208 52.8223 7.26886 52.8223 5.66988L52.824 5.66823ZM81.3371 21.5112V17.1504H82.6396V10.1742H81.3371V5.81399H87.4159C87.4159 6.54005 87.5605 7.41297 87.5605 8.28479C87.7051 8.13958 87.7051 7.99437 87.7051 7.84861C88.1395 6.5406 89.1522 5.81344 90.4548 5.66823H92.4814C92.5563 5.67359 92.6268 5.70591 92.6799 5.75926C92.7331 5.81261 92.7653 5.8834 92.7706 5.95865V10.7551C92.0476 10.7551 91.1783 10.6098 90.4548 10.7551C88.8625 11.0455 88.1389 11.9178 87.9943 13.5163V17.0047H89.7307V21.3649C87.1256 21.5101 84.2313 21.5101 81.336 21.5101L81.3371 21.5112ZM122.06 0.155663C122.929 0.300875 123.797 0.300875 124.521 0.59185C127.85 1.46367 129.587 5.53346 127.85 8.58567C127.416 9.31173 126.837 9.74847 126.114 10.1847C125.824 10.3299 125.535 10.4751 125.1 10.7661C125.245 10.9113 125.39 10.9113 125.535 10.9113C127.851 11.6373 128.864 13.3821 129.008 15.5625C129.298 18.7599 127.272 21.0849 124.088 21.3764C123.074 21.5217 122.061 21.5217 121.193 21.5217H111.206V17.1614H113.087V4.37067H111.206V0.0110012C114.969 0.156213 118.443 0.156213 122.061 0.156213L122.06 0.155663ZM118.876 12.9464V17.1614C118.882 17.2367 118.914 17.3075 118.967 17.3608C119.02 17.4142 119.091 17.4465 119.166 17.4519H121.626C122.205 17.4519 122.784 17.1614 123.073 16.58C123.796 15.272 123.073 13.5273 121.626 13.2369C120.758 12.9464 119.89 12.9464 118.876 12.9464ZM118.876 8.87609C119.745 8.87609 120.469 8.87609 121.337 8.73088C122.35 8.58567 122.929 7.7133 122.929 6.69571C122.929 5.67813 122.35 4.8063 121.482 4.66054C120.614 4.51478 119.746 4.51533 118.877 4.51533L118.876 8.87609ZM171.85 10.3293H169.679C169.604 10.3347 169.533 10.367 169.48 10.4204C169.427 10.4737 169.395 10.5445 169.389 10.6197V16.1422C169.389 17.305 170.112 17.8858 171.416 17.5954H171.705V21.0838C171.705 21.3742 171.705 21.52 171.416 21.52C169.824 21.8104 168.232 21.9562 166.495 21.6652C164.614 21.229 163.746 20.212 163.746 18.322V10.1847H163.172C162.303 10.1847 162.449 10.3299 162.449 9.45859V5.83049H164.185V2.92349C164.185 1.90591 164.04 2.05167 165.053 1.90591C166.512 1.61986 167.96 1.28044 169.395 0.888324V5.82994H172C171.855 7.42892 171.855 8.88269 171.855 10.3359L171.85 10.3293ZM154.771 11.9283V10.4751C154.771 9.60326 154.192 9.02186 153.469 9.02186C152.745 9.02186 152.022 9.60326 152.022 10.3299V10.9113H146.811C146.667 8.87609 147.679 7.13245 149.561 6.26007C152.31 5.09728 155.206 5.09728 157.955 6.40529C159.692 7.27711 160.56 8.58567 160.56 10.4756V17.0212H161.863V21.3814H155.345C155.345 20.8 155.2 20.3638 155.2 19.6377C155.056 19.783 154.911 19.9282 154.911 20.0739C153.175 22.1091 149.99 22.1091 148.253 21.2367C146.951 20.5107 146.372 19.2016 146.227 17.7483C146.082 14.5509 147.674 12.5157 151.003 11.9344L154.477 11.6439C154.332 11.9344 154.477 11.9344 154.766 11.9344L154.771 11.9283ZM154.771 14.6895H153.469C152.166 14.8347 151.587 15.8523 151.733 17.0151C151.877 18.0327 152.746 18.6141 153.759 18.1779C154.338 18.0327 154.627 17.5965 154.772 17.0151L154.771 14.6895ZM145.508 14.8347H135.811C135.811 15.8523 135.811 16.7242 136.39 17.4508C136.824 18.0322 137.403 18.1768 138.126 18.1768C138.849 18.1768 139.284 17.7406 139.573 17.1592L139.862 16.2874H145.218C145.073 18.0311 144.35 19.4848 142.902 20.5024C141.166 21.8104 139.284 22.1014 137.257 21.9556C136.389 21.9556 135.665 21.8104 134.796 21.5195C132.625 20.9381 131.323 19.4843 130.599 17.4491C129.876 14.9783 129.731 12.5075 130.744 10.0367C131.757 7.42067 133.784 5.96635 136.533 5.67648C137.836 5.53126 139.283 5.67648 140.587 5.9669C143.336 6.83872 144.784 8.87389 145.363 11.6357C145.363 12.6533 145.507 13.6708 145.507 14.8331L145.508 14.8347ZM139.863 11.9277C139.863 11.0559 139.718 10.1841 138.995 9.74737C138.271 9.31063 137.548 9.31118 136.824 9.89258C136.245 10.3288 136.101 11.0554 136.101 11.9277H139.863Z" fill="black"/>
</svg>
